<svg id="_0" data-name="0" xmlns="http://www.w3.org/2000/svg" viewBox="0 0 32 32"><defs><style>.cls-1{fill:#fff;opacity:0.2;isolation:isolate;}.cls-2{fill:none;stroke:#fff;stroke-linecap:round;stroke-linejoin:round;stroke-width:2px;}</style></defs><path class="cls-1" d="M29,19a13,13,0,0,1-.74,4.33,1,1,0,0,1-.94.67H4.68a1,1,0,0,1-.94-.68A13,13,0,1,1,29,19"/><path class="cls-2" d="M4.81,24.06h22.4C28.35,23,29,21.39,29,19A13,13,0,0,0,9.39,7.81a13.49,13.49,0,0,0-6.33,9.4"/><line class="cls-2" x1="27.21" y1="24.06" x2="4.81" y2="24.06"/><line class="cls-2" x1="17.14" y1="20.12" x2="1.46" y2="20.12"/></svg>